<?xml version="1.0" encoding="UTF-8" standalone="no"?>
<svg
   xmlns:dc="http://purl.org/dc/elements/1.1/"
   xmlns:cc="http://creativecommons.org/ns#"
   xmlns:rdf="http://www.w3.org/1999/02/22-rdf-syntax-ns#"
   xmlns:svg="http://www.w3.org/2000/svg"
   xmlns="http://www.w3.org/2000/svg"
   xmlns:sodipodi="http://sodipodi.sourceforge.net/DTD/sodipodi-0.dtd"
   xmlns:inkscape="http://www.inkscape.org/namespaces/inkscape"
   width="16"
   height="16"
   fill="currentColor"
   class="bi bi-activity"
   viewBox="0 0 16 16"
   version="1.1"
   id="svg70"
   sodipodi:docname="activity_info.svg"
   inkscape:version="0.92.5 (2060ec1f9f, 2020-04-08)">
  <metadata
     id="metadata76">
    <rdf:RDF>
      <cc:Work
         rdf:about="">
        <dc:format>image/svg+xml</dc:format>
        <dc:type
           rdf:resource="http://purl.org/dc/dcmitype/StillImage" />
        <dc:title />
      </cc:Work>
    </rdf:RDF>
  </metadata>
  <defs
     id="defs74" />
  <sodipodi:namedview
     pagecolor="#ffffff"
     bordercolor="#666666"
     borderopacity="1"
     objecttolerance="10"
     gridtolerance="10"
     guidetolerance="10"
     inkscape:pageopacity="0"
     inkscape:pageshadow="2"
     inkscape:window-width="1848"
     inkscape:window-height="1016"
     id="namedview72"
     showgrid="false"
     inkscape:zoom="18.517359"
     inkscape:cx="7.9809069"
     inkscape:cy="8"
     inkscape:window-x="72"
     inkscape:window-y="27"
     inkscape:window-maximized="1"
     inkscape:current-layer="svg70" />
  <path
     d="M 6,4 A 0.5,0.5 0 0 1 6.47,4.33 L 10,14.036 11.53,9.828 A 0.5,0.5 0 0 1 12,9.5 h 3.5 a 0.5,0.5 0 0 1 0,1 h -3.15 l -1.88,5.17 a 0.5,0.5 0 0 1 -0.94,0 L 6,5.964 4.47,10.171 A 0.5,0.5 0 0 1 4,10.5 H 0.5 a 0.5,0.5 0 0 1 0,-1 H 3.65 L 5.53,4.33 A 0.5,0.5 0 0 1 6,4 Z"
     id="path68"
     inkscape:connector-curvature="0"
     style="fill-rule:evenodd;fill:#ffffff" />
  <path
     inkscape:connector-curvature="0"
     d="m 11.32036,3.9604475 -2.2900004,0.287 -0.082,0.3799998 0.4499998,0.083 c 0.294,0.07 0.352,0.176 0.288,0.469 l -0.7379998,3.468 c -0.194,0.897 0.1049998,1.319 0.8079998,1.319 0.5449996,0 1.1779996,-0.252 1.4649996,-0.598 l 0.088,-0.416 c -0.2,0.176 -0.492,0.246 -0.686,0.246 -0.275,0 -0.375,-0.193 -0.304,-0.533 z m 0.07,-2.0879997 a 1,1 0 1 1 -2.0000004,0 1,1 0 0 1 2.0000004,0 z"
     id="path1445"
     style="fill:#ffffff" />
</svg>
